Coordinates
version=1
nRows=5
nColumns=40
inDegrees=yes

Units are S.I. units (second, meters, Newtons, ...)
Angles are in degrees.

endheader
time	pelvis_tilt	pelvis_list	pelvis_rotation	pelvis_tx	pelvis_ty	pelvis_tz	hip_flexion_r	hip_adduction_r	hip_rotation_r	knee_angle_r	knee_angle_r_beta	ankle_angle_r	subtalar_angle_r	mtp_angle_r	hip_flexion_l	hip_adduction_l	hip_rotation_l	knee_angle_l	knee_angle_l_beta	ankle_angle_l	subtalar_angle_l	mtp_angle_l	lumbar_extension	lumbar_bending	lumbar_rotation	arm_flex_r	arm_add_r	arm_rot_r	elbow_flex_r	pro_sup_r	wrist_flex_r	wrist_dev_r	arm_flex_l	arm_add_l	arm_rot_l	elbow_flex_l	pro_sup_l	wrist_flex_l	wrist_dev_l
      6.90250000	     -4.05535802	     -3.80429153	     -2.16935359	      0.76534452	      0.92463260	      0.46953302	     21.59545544	      1.34972476	     -9.52219611	     21.05802409	     21.05802409	      5.64142659	     -3.48245459	     -3.10666808	      0.85917246	     -6.88195239	    -11.67317225	     24.51511173	     24.51511173	     19.82897625	     -3.20219431	     -4.20556446	     -8.19385852	      3.79018398	     -0.76445326	    -10.65964568	    -13.68356265	    -10.80347927	     33.04119297	     46.78179551	      0.00000000	      0.00000000	      9.86491615	    -14.37310929	    -10.50638111	     73.52131943	     47.54262971	      0.00000000	      0.00000000
      6.91628571	     -4.03757224	     -3.91190693	     -1.87711831	      0.76647806	      0.92519797	      0.47231954	     20.98050175	      1.60332171	     -9.67204209	     21.05997093	     21.05997093	      6.36736958	     -3.55953738	     -2.60134868	      1.69928043	     -7.60483925	    -11.28200824	     26.88877008	     26.88877008	     18.13043043	     -4.03338533	     -7.51315121	     -8.06984622	      3.96144223	     -0.15530667	    -11.45645610	    -14.12684556	     -8.09304447	     37.73620909	     46.35827960	      0.00000000	      0.00000000	     10.13850200	    -13.88758523	     -9.64994638	     70.47981607	     47.44694330	      0.00000000	      0.00000000
      6.93007143	     -3.89505345	     -4.00015059	     -1.55035585	      0.76742218	      0.92593434	      0.47507264	     20.18719142	      1.79822471	    -10.04461134	     20.95303760	     20.95303760	      6.83983629	     -3.41276598	     -2.75841750	      2.75686392	     -8.31990128	    -10.61160658	     29.92325887	     29.92325887	     17.17894899	     -4.84130527	     -8.22899018	     -8.19501818	      4.00582695	     -0.15642572	    -10.19945866	    -13.99559982	     -7.94260448	     38.61414712	     46.31923085	      0.00000000	      0.00000000	      9.41845387	    -13.76176071	     -9.33630366	     69.65389733	     47.40739404	      0.00000000	      0.00000000
      6.94385714	     -3.93078958	     -4.12016573	     -1.14519892	      0.76810815	      0.92632180	      0.47771372	     19.58433611	      2.00227492	    -10.53138747	     20.80517258	     20.80517258	      7.22676334	     -3.21329780	     -2.90171497	      4.32376485	     -9.11488261	     -9.76830428	     33.39409984	     33.39409984	     15.84072039	     -5.75579709	     -9.37760127	     -8.07313040	      4.11045505	     -0.36175169	     -8.98570123	    -13.93263185	     -7.73293057	     39.89062086	     46.26070630	      0.00000000	      0.00000000	      8.58434571	    -13.67462560	     -8.99928585	     68.28716162	     47.35683680	      0.00000000	      0.00000000
      6.95764286	     -3.97805439	     -4.20784945	     -0.70554129	      0.76858043	      0.92657427	      0.48020785	     19.02778473	      2.15491285	    -11.04325494	     20.68821560	     20.68821560	      7.63304528	     -2.99287313	     -3.05294949	      6.11271390	     -9.84131150	     -8.77085634	     37.07998310	     37.07998310	     14.00917338	     -6.89361413	    -10.83019739	     -7.93570357	      4.22238459	     -0.57379610	     -7.85181707	    -13.95611623	     -7.40607636	     41.59119484	     46.17903329	      0.00000000	      0.00000000	      7.81944341	    -13.54678504	     -8.65229423	     66.50560870	     47.29956669	      0.00000000	      0.00000000
